<svg width="18" height="12" viewBox="0 0 18 12" fill="none" xmlns="http://www.w3.org/2000/svg">
<path d="M16.3385 0.466667C16.8908 0.466667 17.3385 0.914382 17.3385 1.46667V10.1337C17.3383 10.6858 16.8906 11.1337 16.3385 11.1337H15.3385C14.7865 11.1334 14.3386 10.6856 14.3385 10.1337V1.46667C14.3385 0.914542 14.7864 0.466925 15.3385 0.466667H16.3385ZM2.33749 7.13268C2.88978 7.13268 3.33749 7.5804 3.33749 8.13268V10.1327C3.33744 10.6849 2.88975 11.1327 2.33749 11.1327H1.33749C0.785239 11.1327 0.337543 10.6849 0.337494 10.1327V8.13268C0.337494 7.5804 0.785209 7.13268 1.33749 7.13268H2.33749ZM7.00351 5.13268C7.55577 5.13271 8.00351 5.58041 8.00351 6.13268V10.1327C8.00348 10.6849 7.55576 11.1327 7.00351 11.1327H6.00351C5.45124 11.1327 5.00353 10.6849 5.00351 10.1327V6.13268C5.00351 5.5804 5.45122 5.13268 6.00351 5.13268H7.00351ZM11.6695 2.79967C12.2218 2.79972 12.6695 3.24742 12.6695 3.79967V10.1327C12.6695 10.6849 12.2218 11.1326 11.6695 11.1327H10.6695C10.1172 11.1327 9.66953 10.685 9.66953 10.1327V3.79967C9.66953 3.24739 10.1172 2.79967 10.6695 2.79967H11.6695Z" fill="black"/>
</svg>
