<svg width="16" height="12" viewBox="0 0 16 12" fill="none" xmlns="http://www.w3.org/2000/svg">
<path d="M5.78476 8.72672C7.0654 7.64447 8.9416 7.64451 10.2223 8.72672C10.2867 8.78493 10.324 8.86749 10.3258 8.95426C10.3275 9.04104 10.293 9.12491 10.231 9.18571L8.22617 11.2072C8.16738 11.2666 8.08713 11.3 8.00351 11.3C7.91992 11.2999 7.83962 11.2666 7.78085 11.2072L5.77499 9.18571C5.71312 9.12488 5.67942 9.04097 5.68124 8.95426C5.68308 8.86749 5.72029 8.78489 5.78476 8.72672ZM3.11191 6.03043C5.87106 3.46603 10.1438 3.46604 12.9029 6.03043C12.9651 6.09048 13.0006 6.17255 13.0016 6.25895C13.0024 6.34548 12.9689 6.42901 12.9078 6.49039L11.7486 7.66129C11.6292 7.78054 11.4365 7.7824 11.3141 7.66617C10.408 6.8464 9.22878 6.39266 8.00644 6.39274C6.78502 6.39326 5.60718 6.84707 4.70175 7.66617C4.5792 7.78252 4.38567 7.7808 4.2662 7.66129L3.108 6.49039C3.04682 6.42909 3.01246 6.34551 3.01328 6.25895C3.01421 6.17266 3.04985 6.09044 3.11191 6.03043ZM0.43515 3.33903C4.66707 -0.713139 11.3439 -0.713182 15.5758 3.33903C15.6369 3.39921 15.671 3.48178 15.6715 3.56754C15.6719 3.6533 15.6382 3.73618 15.5777 3.79703L14.4176 4.96696C14.298 5.08705 14.1034 5.08813 13.982 4.96988C12.3697 3.43848 10.23 2.58424 8.00546 2.58414C5.78057 2.58416 3.64046 3.43825 2.02792 4.96988C1.90664 5.08825 1.71287 5.08706 1.59335 4.96696L0.43222 3.79703C0.37179 3.73615 0.33799 3.65328 0.33847 3.56754C0.339036 3.48169 0.373848 3.39918 0.43515 3.33903Z" fill="black"/>
</svg>
